<svg width="400" height="400" xmlns="http://www.w3.org/2000/svg">
  <rect x="50" y="50" width="300" height="200" fill="#f4f4f4" stroke="#333" stroke-width="2"/>
  <rect x="55" y="60" width="290" height="190" fill="white" stroke="#999" stroke-width="1"/>
  <text x="70" y="90" font-family="Arial" font-size="20" fill="#333">Orden de Trabajo</text>
  <line x1="70" y1="110" x2="330" y2="110" stroke="#ccc" stroke-width="2"/>
  <text x="70" y="140" font-family="Arial" font-size="16" fill="#333">Cliente: Manejadatos.com</text>
  <text x="70" y="170" font-family="Arial" font-size="16" fill="#333">Fecha: 23/01/2025</text>
  <text x="70" y="200" font-family="Arial" font-size="16" fill="#333">Descripción: Reparación</text>
  
  <rect x="60" y="80" width="300" height="200" fill="#f4f4f4" stroke="#333" stroke-width="2"/>
  <rect x="65" y="90" width="290" height="190" fill="white" stroke="#999" stroke-width="1"/>
  <text x="80" y="120" font-family="Arial" font-size="20" fill="#333">Orden de Trabajo</text>
  <line x1="80" y1="140" x2="340" y2="140" stroke="#ccc" stroke-width="2"/>
  <text x="80" y="170" font-family="Arial" font-size="16" fill="#333">Cliente: Manejadatos.com</text>
  <text x="80" y="200" font-family="Arial" font-size="16" fill="#333">Fecha: 24/01/2025</text>
  <text x="80" y="230" font-family="Arial" font-size="16" fill="#333">Descripción: Instalación</text>

  <rect x="70" y="110" width="300" height="200" fill="#f4f4f4" stroke="#333" stroke-width="2"/>
  <rect x="75" y="120" width="290" height="190" fill="white" stroke="#999" stroke-width="1"/>
  <text x="90" y="150" font-family="Arial" font-size="20" fill="#333">Orden de Trabajo</text>
  <line x1="90" y1="170" x2="350" y2="170" stroke="#ccc" stroke-width="2"/>
  <text x="90" y="200" font-family="Arial" font-size="16" fill="#333">Cliente: Manejadatos.com</text>
  <text x="90" y="230" font-family="Arial" font-size="16" fill="#333">Fecha: 25/01/2025</text>
  <text x="90" y="260" font-family="Arial" font-size="16" fill="#333">Descripción: Mantenimiento</text>
</svg>